# xmcd
#
# Track frame offsets:
#	150
#	18951
#	36244
#	53708
#	82321
#	101580
#	116505
#	129906
#	154661
#	171932
#	187569
#	207000
#	224734
#
# Disc length: 3219 seconds
#
# Revision: 418646609
# Processed by: cddbd v1.5.2PL0 Copyright (c) Steve Scherf et al.
# Submitted via: EZCDAudioConverter 8.2.2.1
#
DISCID=aa0c910d
DTITLE=Ecuador - Pienso en ti
DYEAR=2011
DGENRE=South America
TTITLE0=Pienso en ti Madalina /RAZA/ 4:10
TTITLE1=Canmandamari 3:50
TTITLE2=Sueltame 3:52
TTITLE3=Marcela tia /RAZA/-En vida 6:21
TTITLE4=Andarele /Arreglos RAZA/ 4:16
TTITLE5=Danza kuduro 3:19
TTITLE6=Pecadora 2:58
TTITLE7=Causani /San Juanito/ 5.30
TTITLE8=Por Ella 3:50
TTITLE9=Te pido perdon 3:28
TTITLE10=Sanjuan Segundo Perez 4:19
TTITLE11=Este Carino Loco 3.56
TTITLE12=Vida de mi amor 3:42
EXTD=
EXTT0=
EXTT1=
EXTT2=
EXTT3=
EXTT4=
EXTT5=
EXTT6=
EXTT7=
EXTT8=
EXTT9=
EXTT10=
EXTT11=
EXTT12=
PLAYORDER=
